# xmcd
#
# Track frame offsets:
#	150
#	17030
#	36081
#	63460
#	80449
#	103387
#	124905
#	144613
#	160019
#	179809
#	210647
#
# Disc length: 3076 seconds
#
# Revision: 0
# Processed by: cddbd v1.5.2PL0 Copyright (c) Steve Scherf et al.
# Submitted via: dBpowerAMP V4.0
#
DISCID=9f0c020b
DTITLE=Beaucoup Blues - Blooming On Harm's Limb
DYEAR=1997
DGENRE=Blues
TTITLE0=Mind Your Store
TTITLE1=Lost In The Shuffle
TTITLE2=Baby Walks The Tightrope
TTITLE3=Roadhouse Queen
TTITLE4=Daddy's Nightmare
TTITLE5=All Work No Play
TTITLE6=Stand Up Guy
TTITLE7=Blueblood Baby
TTITLE8=Ready Or Not
TTITLE9=Blooming On Harm's Limb
TTITLE10=Roadhouse Queen (revisited)
EXTD=
EXTT0=
EXTT1=
EXTT2=
EXTT3=
EXTT4=
EXTT5=
EXTT6=
EXTT7=
EXTT8=
EXTT9=
EXTT10=
PLAYORDER=
